<svg xmlns="http://www.w3.org/2000/svg" width="32" height="32" viewBox="0 0 32 32" fill="none">
  <defs>
    <linearGradient id="houseFill" x1="0%" y1="0%" x2="100%" y2="100%">
      <stop offset="0%" stop-color="#8CC63F" />
      <stop offset="100%" stop-color="#1A5F23" />
    </linearGradient>
    <linearGradient id="swooshFill" x1="0%" y1="0%" x2="100%" y2="100%">
      <stop offset="0%" stop-color="#8CC63F" />
      <stop offset="100%" stop-color="#1A5F23" />
    </linearGradient>
  </defs>
  
  <!-- House -->
  <path d="M16 4L26 12V24H19V18H13V24H6V12L16 4Z" fill="url(#houseFill)"/>
  
  <!-- Windows -->
  <rect x="13" y="12" width="3" height="3" fill="#FFFFFF" opacity="0.8"/>
  <rect x="16" y="12" width="3" height="3" fill="#FFFFFF" opacity="0.8"/>
  <rect x="13" y="15" width="3" height="3" fill="#FFFFFF" opacity="0.8"/>
  <rect x="16" y="15" width="3" height="3" fill="#FFFFFF" opacity="0.8"/>
  
  <!-- Swoosh -->
  <path d="M28 16C28 10.48 23.52 6 18 6C14.58 6 11.55 7.64 9.68 10.18C8.83 10.06 7.96 10 7.07 10C3.17 10 0 13.17 0 17.07C0 20.97 3.17 24.14 7.07 24.14H28C30.21 24.14 32 22.35 32 20.14C32 17.93 30.21 16.14 28 16.14V16Z" fill="url(#swooshFill)" opacity="0.8" transform="translate(0, 2) scale(0.8)"/>
</svg> 